<svg xmlns="http://www.w3.org/2000/svg" xmlns:xlink="http://www.w3.org/1999/xlink" width="40" zoomAndPan="magnify" viewBox="0 0 30 30.000001" height="40" preserveAspectRatio="xMidYMid meet" version="1.0"><defs><clipPath id="c85323b8b5"><path d="M 2.632812 11 L 27.3125 11 L 27.3125 28.414062 L 2.632812 28.414062 Z M 2.632812 11 " clip-rule="nonzero"/></clipPath><clipPath id="c0f7a155d0"><path d="M 3 0.832031 L 27 0.832031 L 27 13 L 3 13 Z M 3 0.832031 " clip-rule="nonzero"/></clipPath></defs><path fill="#ffffff" d="M 3.394531 12.070312 L 14.996094 1.316406 L 26.210938 11.875 L 26.210938 12.195312 Z M 3.394531 12.070312 " fill-opacity="1" fill-rule="nonzero"/><path fill="#ffffff" d="M 3.015625 12.070312 L 26.972656 12.070312 L 26.972656 27.945312 L 3.015625 27.945312 Z M 3.015625 12.070312 " fill-opacity="1" fill-rule="nonzero"/><g clip-path="url(#c85323b8b5)"><path fill="#000000" d="M 27.355469 28.191406 L 2.632812 28.191406 L 2.632812 11.816406 L 27.355469 11.816406 Z M 3.394531 27.429688 L 26.59375 27.429688 L 26.59375 12.578125 L 3.394531 12.578125 Z M 3.394531 27.429688 " fill-opacity="1" fill-rule="nonzero"/></g><g clip-path="url(#c0f7a155d0)"><path fill="#000000" d="M 26.972656 11.113281 L 26.972656 12.476562 L 26.210938 12.476562 L 26.210938 11.875 L 25.261719 11.875 L 25.261719 10.949219 L 24.164062 10.949219 L 24.164062 9.722656 L 22.921875 9.722656 L 22.921875 8.613281 L 21.894531 8.613281 L 21.894531 7.691406 L 20.65625 7.691406 L 20.65625 6.644531 L 19.558594 6.644531 L 19.558594 5.722656 L 18.386719 5.722656 L 18.386719 4.550781 L 17.433594 4.550781 L 17.433594 3.566406 L 16.339844 3.566406 L 16.339844 2.523438 L 13.652344 2.523438 L 13.652344 3.566406 L 12.554688 3.566406 L 12.554688 4.550781 L 11.601562 4.550781 L 11.601562 5.722656 L 10.433594 5.722656 L 10.433594 6.644531 L 9.335938 6.644531 L 9.335938 7.691406 L 8.09375 7.691406 L 8.09375 8.613281 L 7.070312 8.613281 L 7.070312 9.722656 L 5.824219 9.722656 L 5.824219 10.949219 L 4.726562 10.949219 L 4.726562 11.875 L 3.777344 11.875 L 3.777344 12.476562 L 3.015625 12.476562 L 3.015625 11.113281 L 3.964844 11.113281 L 3.964844 10.1875 L 5.0625 10.1875 L 5.0625 8.957031 L 6.308594 8.957031 L 6.308594 7.851562 L 7.332031 7.851562 L 7.332031 6.929688 L 8.574219 6.929688 L 8.574219 5.882812 L 9.671875 5.882812 L 9.671875 4.960938 L 10.839844 4.960938 L 10.839844 4.636719 L 10.828125 4.636719 L 10.84375 3.785156 L 11.273438 3.792969 L 11.273438 3.789062 L 11.792969 3.789062 L 11.792969 2.804688 L 12.890625 2.804688 L 12.890625 1.761719 L 14.277344 1.761719 L 14.277344 0.835938 L 15.710938 0.835938 L 15.710938 1.761719 L 17.101562 1.761719 L 17.101562 2.804688 L 18.199219 2.804688 L 18.199219 3.789062 L 18.765625 3.789062 L 19.132812 3.785156 L 19.148438 4.636719 L 19.148438 4.960938 L 20.320312 4.960938 L 20.320312 5.882812 L 21.417969 5.882812 L 21.417969 6.929688 L 22.65625 6.929688 L 22.65625 7.851562 L 23.683594 7.851562 L 23.683594 8.957031 L 24.925781 8.957031 L 24.925781 10.1875 L 26.023438 10.1875 L 26.023438 11.113281 Z M 26.972656 11.113281 " fill-opacity="1" fill-rule="nonzero"/></g><path fill="#000000" d="M 22.199219 10.34375 L 22.199219 17.746094 L 21.417969 17.746094 L 21.417969 18.792969 L 20.320312 18.792969 L 20.320312 19.714844 L 19.148438 19.714844 L 19.148438 20.035156 L 19.527344 20.035156 L 19.527344 20.761719 L 10.460938 20.761719 L 10.460938 20.035156 L 10.839844 20.035156 L 10.839844 19.714844 L 9.671875 19.714844 L 9.671875 18.792969 L 8.574219 18.792969 L 8.574219 17.746094 L 7.792969 17.746094 L 7.792969 10.34375 Z M 22.199219 10.34375 " fill-opacity="1" fill-rule="nonzero"/><path fill="#ffffff" d="M 21.46875 10.996094 L 21.46875 17.746094 L 21.417969 17.746094 L 21.417969 18.792969 L 20.320312 18.792969 L 20.320312 19.714844 L 19.148438 19.714844 L 19.148438 20.007812 L 10.839844 20.007812 L 10.839844 19.714844 L 9.671875 19.714844 L 9.671875 18.792969 L 8.574219 18.792969 L 8.574219 17.746094 L 8.429688 17.746094 L 8.429688 10.996094 Z M 21.46875 10.996094 " fill-opacity="1" fill-rule="nonzero"/><path fill="#000000" d="M 19.148438 20.035156 L 19.527344 20.035156 L 19.527344 20.960938 L 20.773438 20.960938 L 20.773438 22.003906 L 21.871094 22.003906 L 21.871094 22.929688 L 23.039062 22.929688 L 23.039062 24.097656 L 23.992188 24.097656 L 23.992188 25.082031 L 25.085938 25.082031 L 25.085938 26.128906 L 26.476562 26.128906 L 26.476562 27.050781 L 26.972656 27.050781 L 26.972656 27.8125 L 25.714844 27.8125 L 25.714844 26.890625 L 24.324219 26.890625 L 24.324219 25.84375 L 23.226562 25.84375 L 23.226562 24.859375 L 22.277344 24.859375 L 22.277344 23.691406 L 21.109375 23.691406 L 21.109375 22.769531 L 20.011719 22.769531 L 20.011719 21.722656 L 18.765625 21.722656 L 18.765625 20.882812 L 18.199219 20.882812 L 18.199219 21.867188 L 17.101562 21.867188 L 17.101562 22.914062 L 15.710938 22.914062 L 15.710938 23.835938 L 14.277344 23.835938 L 14.277344 22.914062 L 12.890625 22.914062 L 12.890625 21.867188 L 11.792969 21.867188 L 11.792969 20.882812 L 11.222656 20.882812 L 11.222656 21.722656 L 9.976562 21.722656 L 9.976562 22.769531 L 8.882812 22.769531 L 8.882812 23.691406 L 7.710938 23.691406 L 7.710938 24.859375 L 6.761719 24.859375 L 6.761719 25.84375 L 5.664062 25.84375 L 5.664062 26.890625 L 4.273438 26.890625 L 4.273438 27.8125 L 3.015625 27.8125 L 3.015625 27.050781 L 3.511719 27.050781 L 3.511719 26.128906 L 4.902344 26.128906 L 4.902344 25.082031 L 6 25.082031 L 6 24.097656 L 6.949219 24.097656 L 6.949219 22.929688 L 8.117188 22.929688 L 8.117188 22.003906 L 9.214844 22.003906 L 9.214844 20.960938 L 10.460938 20.960938 L 10.460938 20.035156 L 10.839844 20.035156 L 10.839844 19.714844 L 9.671875 19.714844 L 9.671875 18.792969 L 8.574219 18.792969 L 8.574219 17.746094 L 7.332031 17.746094 L 7.332031 16.824219 L 6.308594 16.824219 L 6.308594 15.714844 L 5.0625 15.714844 L 5.0625 14.488281 L 3.964844 14.488281 L 3.964844 13.5625 L 3.015625 13.5625 L 3.015625 12.195312 L 3.777344 12.195312 L 3.777344 12.800781 L 4.726562 12.800781 L 4.726562 13.722656 L 5.824219 13.722656 L 5.824219 14.953125 L 7.070312 14.953125 L 7.070312 16.0625 L 8.09375 16.0625 L 8.09375 16.984375 L 9.335938 16.984375 L 9.335938 18.03125 L 10.433594 18.03125 L 10.433594 18.953125 L 11.601562 18.953125 L 11.601562 20.121094 L 12.554688 20.121094 L 12.554688 21.105469 L 13.652344 21.105469 L 13.652344 22.152344 L 16.339844 22.152344 L 16.339844 21.105469 L 17.433594 21.105469 L 17.433594 20.121094 L 18.386719 20.121094 L 18.386719 18.953125 L 19.558594 18.953125 L 19.558594 18.03125 L 20.65625 18.03125 L 20.65625 16.984375 L 21.894531 16.984375 L 21.894531 16.0625 L 22.921875 16.0625 L 22.921875 14.953125 L 24.164062 14.953125 L 24.164062 13.722656 L 25.261719 13.722656 L 25.261719 12.800781 L 26.210938 12.800781 L 26.210938 12.195312 L 26.972656 12.195312 L 26.972656 13.5625 L 26.023438 13.5625 L 26.023438 14.488281 L 24.925781 14.488281 L 24.925781 15.714844 L 23.683594 15.714844 L 23.683594 16.824219 L 22.65625 16.824219 L 22.65625 17.746094 L 21.417969 17.746094 L 21.417969 18.792969 L 20.320312 18.792969 L 20.320312 19.714844 L 19.148438 19.714844 Z M 19.148438 20.035156 " fill-opacity="1" fill-rule="nonzero"/><path fill="#000000" d="M 10.554688 13.238281 L 19.410156 13.238281 L 19.410156 13.875 L 10.554688 13.875 Z M 10.554688 13.238281 " fill-opacity="1" fill-rule="nonzero"/><path fill="#000000" d="M 10.554688 16.636719 L 19.410156 16.636719 L 19.410156 17.273438 L 10.554688 17.273438 Z M 10.554688 16.636719 " fill-opacity="1" fill-rule="nonzero"/></svg>