<svg xmlns="http://www.w3.org/2000/svg" xmlns:xlink="http://www.w3.org/1999/xlink" width="40" zoomAndPan="magnify" viewBox="0 0 30 30.000001" height="40" preserveAspectRatio="xMidYMid meet" version="1.0"><defs><clipPath id="f75985d11a"><path d="M 7.515625 1.644531 L 22.757812 1.644531 L 22.757812 22 L 7.515625 22 Z M 7.515625 1.644531 " clip-rule="nonzero"/></clipPath><clipPath id="930cadeef0"><path d="M 10 23 L 20 23 L 20 27.046875 L 10 27.046875 Z M 10 23 " clip-rule="nonzero"/></clipPath></defs><g clip-path="url(#f75985d11a)"><path fill="#6466af" d="M 21.125 5.691406 L 21.125 4.339844 L 19.773438 4.339844 L 19.773438 2.992188 L 18.425781 2.992188 L 18.425781 1.644531 L 11.566406 1.644531 L 11.566406 2.992188 L 10.21875 2.992188 L 10.21875 4.339844 L 8.871094 4.339844 L 8.871094 5.691406 L 7.519531 5.691406 L 7.519531 12.546875 L 8.871094 12.546875 L 8.871094 13.898438 L 10.21875 13.898438 L 10.21875 16.59375 L 11.566406 16.59375 L 11.566406 19.292969 L 12.917969 19.292969 L 12.917969 20.640625 L 14.265625 20.640625 L 14.265625 21.992188 L 15.726562 21.992188 L 15.726562 20.640625 L 17.078125 20.640625 L 17.078125 19.292969 L 18.425781 19.292969 L 18.425781 16.59375 L 19.773438 16.59375 L 19.773438 13.898438 L 21.125 13.898438 L 21.125 12.546875 L 22.472656 12.546875 L 22.472656 5.691406 Z M 18.3125 9.851562 L 18.3125 11.085938 L 16.964844 11.085938 L 16.964844 12.433594 L 13.03125 12.433594 L 13.03125 11.085938 L 11.679688 11.085938 L 11.679688 7.152344 L 13.03125 7.152344 L 13.03125 5.804688 L 16.964844 5.804688 L 16.964844 7.152344 L 18.3125 7.152344 Z M 18.3125 9.851562 " fill-opacity="1" fill-rule="nonzero"/></g><g clip-path="url(#930cadeef0)"><path fill="#6466af" d="M 18.425781 23.226562 L 11.566406 23.226562 L 11.566406 24.574219 L 10.21875 24.574219 L 10.21875 26.039062 L 11.566406 26.039062 L 11.566406 27.386719 L 18.425781 27.386719 L 18.425781 26.039062 L 19.773438 26.039062 L 19.773438 24.574219 L 18.425781 24.574219 Z M 18.425781 23.226562 " fill-opacity="1" fill-rule="nonzero"/></g></svg>