<svg xmlns="http://www.w3.org/2000/svg" xmlns:xlink="http://www.w3.org/1999/xlink" width="40" zoomAndPan="magnify" viewBox="0 0 30 30.000001" height="40" preserveAspectRatio="xMidYMid meet" version="1.0"><defs><clipPath id="8487387776"><path d="M 0.484375 2.902344 L 29.515625 2.902344 L 29.515625 25.402344 L 0.484375 25.402344 Z M 0.484375 2.902344 " clip-rule="nonzero"/></clipPath><clipPath id="cebdc19af8"><path d="M 23 14 L 25.886719 14 L 25.886719 18 L 23 18 Z M 23 14 " clip-rule="nonzero"/></clipPath><clipPath id="4b283fa561"><path d="M 3.386719 13.019531 L 8 13.019531 L 8 18 L 3.386719 18 Z M 3.386719 13.019531 " clip-rule="nonzero"/></clipPath></defs><g clip-path="url(#8487387776)"><path fill="#6566af" d="M 29.503906 6.941406 L 29.503906 25.402344 L 0.496094 25.402344 L 0.496094 6.941406 L 1.632812 6.941406 L 1.632812 24.25 L 28.355469 24.25 L 28.355469 6.941406 Z M 2.203125 6.941406 L 1.632812 6.941406 L 1.632812 5.789062 L 2.785156 5.789062 L 2.785156 4.632812 L 3.351562 4.632812 L 3.351562 3.480469 L 4.488281 3.480469 L 4.488281 2.902344 L 11.878906 2.902344 L 11.878906 3.480469 L 13.015625 3.480469 L 13.015625 4.632812 L 13.585938 4.632812 L 13.585938 5.789062 L 28.355469 5.789062 L 28.355469 6.941406 Z M 3.921875 4.632812 L 3.921875 5.789062 L 12.449219 5.789062 L 12.449219 4.632812 L 11.878906 4.632812 L 11.878906 4.058594 L 4.488281 4.058594 L 4.488281 4.632812 Z M 3.921875 4.632812 " fill-opacity="1" fill-rule="nonzero"/></g><path fill="#fdf0cb" d="M 28.367188 6.941406 L 28.367188 24.253906 L 1.632812 24.253906 L 1.632812 6.941406 Z M 11.875 5.789062 L 12.441406 5.789062 L 12.441406 4.632812 L 11.875 4.632812 L 11.875 4.058594 L 4.488281 4.058594 L 4.488281 4.632812 L 3.921875 4.632812 L 3.921875 5.789062 Z M 11.875 5.789062 " fill-opacity="1" fill-rule="nonzero"/><path fill="#000000" d="M 10.164062 14.183594 L 10.738281 14.183594 L 10.738281 17.027344 L 10.164062 17.027344 Z M 10.164062 14.183594 " fill-opacity="1" fill-rule="nonzero"/><path fill="#000000" d="M 11.359375 17.027344 L 11.359375 14.183594 L 12.332031 14.183594 L 13.019531 16.523438 L 13.058594 16.523438 L 13.058594 14.183594 L 13.636719 14.183594 L 13.636719 17.027344 L 12.6875 17.027344 L 11.976562 14.683594 L 11.9375 14.683594 L 11.9375 17.027344 Z M 11.359375 17.027344 " fill-opacity="1" fill-rule="nonzero"/><path fill="#000000" d="M 15.128906 14.636719 C 14.828125 14.636719 14.675781 14.734375 14.675781 14.9375 C 14.675781 15.027344 14.710938 15.09375 14.789062 15.140625 C 14.863281 15.1875 15.039062 15.257812 15.316406 15.347656 C 15.59375 15.433594 15.789062 15.535156 15.898438 15.652344 C 16.011719 15.761719 16.066406 15.933594 16.066406 16.167969 C 16.066406 16.46875 15.976562 16.691406 15.796875 16.847656 C 15.613281 17 15.378906 17.078125 15.085938 17.078125 C 14.867188 17.078125 14.601562 17.042969 14.285156 16.976562 L 14.136719 16.945312 L 14.195312 16.5 C 14.566406 16.550781 14.851562 16.574219 15.050781 16.574219 C 15.347656 16.574219 15.496094 16.453125 15.496094 16.207031 C 15.496094 16.117188 15.460938 16.046875 15.390625 15.996094 C 15.324219 15.949219 15.1875 15.894531 14.984375 15.835938 C 14.660156 15.742188 14.433594 15.632812 14.300781 15.507812 C 14.167969 15.378906 14.101562 15.203125 14.101562 14.976562 C 14.101562 14.695312 14.1875 14.480469 14.363281 14.34375 C 14.535156 14.203125 14.769531 14.132812 15.070312 14.132812 C 15.277344 14.132812 15.539062 14.160156 15.859375 14.21875 L 16.007812 14.246094 L 15.960938 14.703125 C 15.570312 14.65625 15.292969 14.636719 15.128906 14.636719 Z M 15.128906 14.636719 " fill-opacity="1" fill-rule="nonzero"/><path fill="#000000" d="M 16.277344 14.695312 L 16.277344 14.183594 L 18.367188 14.183594 L 18.367188 14.695312 L 17.613281 14.695312 L 17.613281 17.027344 L 17.035156 17.027344 L 17.035156 14.695312 Z M 16.277344 14.695312 " fill-opacity="1" fill-rule="nonzero"/><path fill="#000000" d="M 19.296875 16.355469 C 19.378906 16.503906 19.535156 16.574219 19.757812 16.574219 C 19.984375 16.574219 20.136719 16.503906 20.21875 16.355469 C 20.304688 16.210938 20.34375 15.964844 20.34375 15.621094 C 20.34375 15.277344 20.304688 15.027344 20.21875 14.871094 C 20.136719 14.714844 19.984375 14.636719 19.757812 14.636719 C 19.535156 14.636719 19.382812 14.714844 19.300781 14.871094 C 19.214844 15.027344 19.175781 15.277344 19.175781 15.621094 C 19.175781 15.964844 19.214844 16.210938 19.296875 16.355469 Z M 20.671875 16.726562 C 20.496094 16.960938 20.191406 17.078125 19.757812 17.078125 C 19.328125 17.078125 19.023438 16.960938 18.84375 16.726562 C 18.667969 16.488281 18.582031 16.117188 18.582031 15.617188 C 18.582031 15.117188 18.667969 14.742188 18.84375 14.5 C 19.023438 14.257812 19.328125 14.132812 19.757812 14.132812 C 20.191406 14.132812 20.496094 14.257812 20.671875 14.5 C 20.847656 14.742188 20.9375 15.117188 20.9375 15.617188 C 20.9375 16.117188 20.847656 16.488281 20.671875 16.726562 Z M 20.671875 16.726562 " fill-opacity="1" fill-rule="nonzero"/><path fill="#000000" d="M 23.234375 16.980469 C 22.9375 17.042969 22.671875 17.078125 22.4375 17.078125 C 22.199219 17.078125 22.011719 17.046875 21.867188 16.988281 C 21.726562 16.929688 21.613281 16.835938 21.535156 16.707031 C 21.453125 16.582031 21.398438 16.429688 21.367188 16.257812 C 21.335938 16.085938 21.320312 15.867188 21.320312 15.605469 C 21.320312 15.054688 21.398438 14.675781 21.550781 14.460938 C 21.707031 14.242188 21.992188 14.132812 22.40625 14.132812 C 22.648438 14.132812 22.921875 14.171875 23.238281 14.246094 L 23.222656 14.707031 C 22.945312 14.664062 22.714844 14.644531 22.53125 14.644531 C 22.351562 14.644531 22.222656 14.667969 22.144531 14.71875 C 22.066406 14.765625 22.007812 14.859375 21.96875 14.996094 C 21.933594 15.132812 21.914062 15.363281 21.914062 15.691406 C 21.914062 16.023438 21.953125 16.25 22.027344 16.378906 C 22.105469 16.503906 22.257812 16.566406 22.484375 16.566406 C 22.71875 16.566406 22.960938 16.546875 23.222656 16.507812 Z M 23.234375 16.980469 " fill-opacity="1" fill-rule="nonzero"/><g clip-path="url(#cebdc19af8)"><path fill="#000000" d="M 24.28125 17.027344 L 23.703125 17.027344 L 23.703125 14.183594 L 24.28125 14.183594 L 24.28125 15.433594 L 24.664062 15.390625 L 25.132812 14.183594 L 25.789062 14.183594 L 25.167969 15.609375 L 25.804688 17.027344 L 25.140625 17.027344 L 24.664062 15.894531 L 24.28125 15.933594 Z M 24.28125 17.027344 " fill-opacity="1" fill-rule="nonzero"/></g><g clip-path="url(#4b283fa561)"><path fill="#2e66e6" d="M 4.382812 14.238281 L 6.824219 14.238281 L 6.824219 14.972656 L 7.796875 13.996094 L 6.824219 13.019531 L 6.824219 13.753906 L 3.898438 13.753906 L 3.898438 15.214844 L 4.382812 15.214844 Z M 6.824219 16.679688 L 4.382812 16.679688 L 4.382812 15.945312 L 3.410156 16.921875 L 4.382812 17.898438 L 4.382812 17.164062 L 7.3125 17.164062 L 7.3125 15.703125 L 6.824219 15.703125 Z M 6.824219 16.679688 " fill-opacity="1" fill-rule="nonzero"/></g></svg>