<svg xmlns="http://www.w3.org/2000/svg" xmlns:xlink="http://www.w3.org/1999/xlink" width="40" zoomAndPan="magnify" viewBox="0 0 30 30.000001" height="40" preserveAspectRatio="xMidYMid meet" version="1.0"><defs><clipPath id="fee0edaefd"><path d="M 0.484375 2.902344 L 29.515625 2.902344 L 29.515625 25.402344 L 0.484375 25.402344 Z M 0.484375 2.902344 " clip-rule="nonzero"/></clipPath><clipPath id="38508946c6"><path d="M 9.195312 10 L 15 10 L 15 16 L 9.195312 16 Z M 9.195312 10 " clip-rule="nonzero"/></clipPath><clipPath id="c1050d1aa6"><path d="M 15 10 L 20.804688 10 L 20.804688 16 L 15 16 Z M 15 10 " clip-rule="nonzero"/></clipPath><clipPath id="b3f099ad9f"><path d="M 9.195312 15 L 15 15 L 15 21 L 9.195312 21 Z M 9.195312 15 " clip-rule="nonzero"/></clipPath><clipPath id="62e1dad05f"><path d="M 15 15 L 20.804688 15 L 20.804688 21 L 15 21 Z M 15 15 " clip-rule="nonzero"/></clipPath></defs><g clip-path="url(#fee0edaefd)"><path fill="#6566af" d="M 29.503906 6.941406 L 29.503906 25.402344 L 0.496094 25.402344 L 0.496094 6.941406 L 1.632812 6.941406 L 1.632812 24.25 L 28.355469 24.25 L 28.355469 6.941406 Z M 2.203125 6.941406 L 1.632812 6.941406 L 1.632812 5.789062 L 2.785156 5.789062 L 2.785156 4.632812 L 3.351562 4.632812 L 3.351562 3.480469 L 4.488281 3.480469 L 4.488281 2.902344 L 11.878906 2.902344 L 11.878906 3.480469 L 13.015625 3.480469 L 13.015625 4.632812 L 13.585938 4.632812 L 13.585938 5.789062 L 28.355469 5.789062 L 28.355469 6.941406 Z M 3.921875 4.632812 L 3.921875 5.789062 L 12.449219 5.789062 L 12.449219 4.632812 L 11.878906 4.632812 L 11.878906 4.058594 L 4.488281 4.058594 L 4.488281 4.632812 Z M 3.921875 4.632812 " fill-opacity="1" fill-rule="nonzero"/></g><path fill="#fdf0cb" d="M 28.367188 6.941406 L 28.367188 24.253906 L 1.632812 24.253906 L 1.632812 6.941406 Z M 11.875 5.789062 L 12.441406 5.789062 L 12.441406 4.632812 L 11.875 4.632812 L 11.875 4.058594 L 4.488281 4.058594 L 4.488281 4.632812 L 3.921875 4.632812 L 3.921875 5.789062 Z M 11.875 5.789062 " fill-opacity="1" fill-rule="nonzero"/><g clip-path="url(#38508946c6)"><path fill="#f35325" d="M 9.699219 10.230469 L 14.746094 10.230469 L 14.746094 15.28125 L 9.699219 15.28125 Z M 9.699219 10.230469 " fill-opacity="1" fill-rule="nonzero"/></g><g clip-path="url(#c1050d1aa6)"><path fill="#81bc06" d="M 15.253906 10.230469 L 20.300781 10.230469 L 20.300781 15.28125 L 15.253906 15.28125 Z M 15.253906 10.230469 " fill-opacity="1" fill-rule="nonzero"/></g><g clip-path="url(#b3f099ad9f)"><path fill="#05a6f0" d="M 9.699219 15.785156 L 14.746094 15.785156 L 14.746094 20.832031 L 9.699219 20.832031 Z M 9.699219 15.785156 " fill-opacity="1" fill-rule="nonzero"/></g><g clip-path="url(#62e1dad05f)"><path fill="#ffba08" d="M 15.253906 15.785156 L 20.300781 15.785156 L 20.300781 20.832031 L 15.253906 20.832031 Z M 15.253906 15.785156 " fill-opacity="1" fill-rule="nonzero"/></g></svg>