<svg xmlns="http://www.w3.org/2000/svg" xmlns:xlink="http://www.w3.org/1999/xlink" width="800" zoomAndPan="magnify" viewBox="0 0 600 225" height="300" preserveAspectRatio="xMidYMid meet" version="1.0"><defs><clipPath id="118a863d84"><path d="M 234 90 L 448.597656 90 L 448.597656 133 L 234 133 Z M 234 90 " clip-rule="nonzero"/></clipPath><clipPath id="56c777504a"><path d="M 151.597656 80 L 182 80 L 182 112 L 151.597656 112 Z M 151.597656 80 " clip-rule="nonzero"/></clipPath><clipPath id="b6574e5f6a"><path d="M 151.597656 114 L 182 114 L 182 145 L 151.597656 145 Z M 151.597656 114 " clip-rule="nonzero"/></clipPath></defs><g clip-path="url(#118a863d84)"><path fill="#706d6e" d="M 448.597656 109.601562 L 448.597656 104.378906 L 442.109375 104.378906 L 442.109375 96.257812 L 441.890625 96.328125 L 435.800781 98.191406 L 435.679688 98.226562 L 435.679688 104.378906 L 426.0625 104.378906 L 426.0625 100.953125 C 426.0625 99.355469 426.421875 98.136719 427.125 97.320312 C 427.824219 96.515625 428.820312 96.105469 430.097656 96.105469 C 431.011719 96.105469 431.960938 96.320312 432.914062 96.746094 L 433.152344 96.855469 L 433.152344 91.355469 L 433.042969 91.3125 C 432.152344 90.992188 430.941406 90.832031 429.4375 90.832031 C 427.546875 90.832031 425.828125 91.242188 424.328125 92.058594 C 422.828125 92.875 421.648438 94.042969 420.824219 95.527344 C 420 97.007812 419.582031 98.71875 419.582031 100.609375 L 419.582031 104.378906 L 415.0625 104.378906 L 415.0625 109.601562 L 419.582031 109.601562 L 419.582031 131.605469 L 426.0625 131.605469 L 426.0625 109.601562 L 435.679688 109.601562 L 435.679688 123.585938 C 435.679688 129.34375 438.398438 132.261719 443.753906 132.261719 C 444.632812 132.261719 445.5625 132.160156 446.507812 131.957031 C 447.46875 131.75 448.125 131.542969 448.511719 131.324219 L 448.597656 131.273438 L 448.597656 126 L 448.332031 126.175781 C 447.980469 126.410156 447.542969 126.601562 447.03125 126.742188 C 446.515625 126.886719 446.082031 126.960938 445.75 126.960938 C 444.492188 126.960938 443.566406 126.625 442.988281 125.957031 C 442.40625 125.28125 442.109375 124.105469 442.109375 122.457031 L 442.109375 109.601562 Z M 400.585938 126.960938 C 398.230469 126.960938 396.375 126.183594 395.070312 124.644531 C 393.753906 123.101562 393.085938 120.898438 393.085938 118.097656 C 393.085938 115.210938 393.753906 112.953125 395.070312 111.378906 C 396.378906 109.816406 398.214844 109.027344 400.53125 109.027344 C 402.78125 109.027344 404.570312 109.78125 405.851562 111.277344 C 407.140625 112.777344 407.792969 115.019531 407.792969 117.941406 C 407.792969 120.898438 407.179688 123.167969 405.96875 124.6875 C 404.761719 126.195312 402.953125 126.960938 400.585938 126.960938 M 400.875 103.722656 C 396.382812 103.722656 392.816406 105.039062 390.273438 107.632812 C 387.734375 110.230469 386.445312 113.820312 386.445312 118.308594 C 386.445312 122.570312 387.703125 126 390.183594 128.496094 C 392.664062 130.996094 396.039062 132.261719 400.21875 132.261719 C 404.570312 132.261719 408.0625 130.929688 410.605469 128.296875 C 413.148438 125.671875 414.433594 122.113281 414.433594 117.730469 C 414.433594 113.402344 413.226562 109.945312 410.84375 107.464844 C 408.457031 104.980469 405.101562 103.722656 400.875 103.722656 M 375.992188 103.722656 C 372.9375 103.722656 370.410156 104.503906 368.480469 106.042969 C 366.539062 107.59375 365.554688 109.625 365.554688 112.085938 C 365.554688 113.363281 365.769531 114.5 366.1875 115.460938 C 366.609375 116.429688 367.257812 117.277344 368.125 117.992188 C 368.984375 118.703125 370.308594 119.441406 372.066406 120.199219 C 373.542969 120.804688 374.644531 121.320312 375.34375 121.722656 C 376.027344 122.121094 376.511719 122.519531 376.785156 122.910156 C 377.050781 123.289062 377.1875 123.808594 377.1875 124.453125 C 377.1875 126.28125 375.816406 127.171875 373 127.171875 C 371.953125 127.171875 370.761719 126.953125 369.453125 126.523438 C 368.148438 126.097656 366.9375 125.484375 365.824219 124.683594 L 365.554688 124.488281 L 365.554688 130.730469 L 365.652344 130.777344 C 366.570312 131.203125 367.726562 131.558594 369.089844 131.839844 C 370.453125 132.121094 371.6875 132.265625 372.761719 132.265625 C 376.074219 132.265625 378.746094 131.480469 380.691406 129.929688 C 382.652344 128.371094 383.644531 126.289062 383.644531 123.746094 C 383.644531 121.910156 383.109375 120.335938 382.058594 119.066406 C 381.011719 117.808594 379.195312 116.652344 376.660156 115.628906 C 374.640625 114.820312 373.347656 114.148438 372.8125 113.632812 C 372.300781 113.132812 372.039062 112.425781 372.039062 111.535156 C 372.039062 110.742188 372.363281 110.109375 373.023438 109.59375 C 373.691406 109.078125 374.617188 108.816406 375.78125 108.816406 C 376.863281 108.816406 377.96875 108.984375 379.066406 109.320312 C 380.164062 109.65625 381.128906 110.101562 381.933594 110.652344 L 382.199219 110.832031 L 382.199219 104.910156 L 382.097656 104.867188 C 381.355469 104.546875 380.375 104.273438 379.1875 104.054688 C 378 103.835938 376.925781 103.722656 375.992188 103.722656 M 348.652344 126.960938 C 346.300781 126.960938 344.445312 126.183594 343.136719 124.644531 C 341.820312 123.101562 341.15625 120.898438 341.15625 118.097656 C 341.15625 115.210938 341.824219 112.953125 343.140625 111.378906 C 344.445312 109.816406 346.285156 109.027344 348.601562 109.027344 C 350.847656 109.027344 352.636719 109.78125 353.921875 111.277344 C 355.207031 112.777344 355.863281 115.019531 355.863281 117.941406 C 355.863281 120.898438 355.246094 123.167969 354.035156 124.6875 C 352.832031 126.195312 351.019531 126.960938 348.652344 126.960938 M 348.941406 103.722656 C 344.453125 103.722656 340.886719 105.039062 338.34375 107.632812 C 335.804688 110.230469 334.515625 113.820312 334.515625 118.308594 C 334.515625 122.574219 335.773438 126 338.253906 128.496094 C 340.734375 130.996094 344.109375 132.261719 348.285156 132.261719 C 352.636719 132.261719 356.132812 130.929688 358.675781 128.296875 C 361.214844 125.671875 362.503906 122.113281 362.503906 117.730469 C 362.503906 113.402344 361.292969 109.945312 358.910156 107.464844 C 356.523438 104.980469 353.171875 103.722656 348.941406 103.722656 M 324.671875 109.09375 L 324.671875 104.378906 L 318.265625 104.378906 L 318.265625 131.605469 L 324.671875 131.605469 L 324.671875 117.679688 C 324.671875 115.308594 325.207031 113.363281 326.269531 111.894531 C 327.316406 110.441406 328.707031 109.707031 330.410156 109.707031 C 330.988281 109.707031 331.636719 109.800781 332.335938 109.992188 C 333.03125 110.179688 333.535156 110.382812 333.828125 110.59375 L 334.097656 110.789062 L 334.097656 104.332031 L 333.996094 104.289062 C 333.398438 104.035156 332.554688 103.90625 331.488281 103.90625 C 329.878906 103.90625 328.4375 104.425781 327.203125 105.441406 C 326.121094 106.335938 325.339844 107.5625 324.738281 109.09375 Z M 306.796875 103.722656 C 303.859375 103.722656 301.238281 104.351562 299.007812 105.59375 C 296.777344 106.839844 295.046875 108.617188 293.871094 110.878906 C 292.703125 113.132812 292.109375 115.765625 292.109375 118.703125 C 292.109375 121.273438 292.683594 123.636719 293.824219 125.714844 C 294.960938 127.800781 296.574219 129.429688 298.617188 130.5625 C 300.652344 131.691406 303.007812 132.265625 305.617188 132.265625 C 308.660156 132.265625 311.261719 131.65625 313.34375 130.457031 L 313.425781 130.40625 L 313.425781 124.539062 L 313.160156 124.734375 C 312.214844 125.421875 311.160156 125.972656 310.023438 126.367188 C 308.894531 126.761719 307.859375 126.960938 306.957031 126.960938 C 304.441406 126.960938 302.425781 126.175781 300.960938 124.625 C 299.492188 123.074219 298.75 120.894531 298.75 118.152344 C 298.75 115.390625 299.527344 113.15625 301.054688 111.503906 C 302.578125 109.859375 304.601562 109.027344 307.0625 109.027344 C 309.167969 109.027344 311.21875 109.738281 313.160156 111.144531 L 313.425781 111.339844 L 313.425781 105.160156 L 313.339844 105.109375 C 312.609375 104.699219 311.613281 104.363281 310.378906 104.109375 C 309.148438 103.851562 307.941406 103.722656 306.796875 103.722656 M 287.699219 104.378906 L 281.292969 104.378906 L 281.292969 131.605469 L 287.699219 131.605469 Z M 284.5625 92.78125 C 283.507812 92.78125 282.585938 93.140625 281.832031 93.851562 C 281.074219 94.5625 280.6875 95.460938 280.6875 96.519531 C 280.6875 97.5625 281.070312 98.445312 281.820312 99.140625 C 282.566406 99.832031 283.488281 100.183594 284.5625 100.183594 C 285.632812 100.183594 286.558594 99.832031 287.3125 99.140625 C 288.074219 98.445312 288.460938 97.566406 288.460938 96.519531 C 288.460938 95.5 288.085938 94.609375 287.34375 93.878906 C 286.605469 93.148438 285.667969 92.78125 284.5625 92.78125 M 268.582031 102.371094 L 268.582031 131.605469 L 275.117188 131.605469 L 275.117188 93.613281 L 266.070312 93.613281 L 254.570312 121.832031 L 243.414062 93.613281 L 234 93.613281 L 234 131.605469 L 240.140625 131.605469 L 240.140625 102.367188 L 240.351562 102.367188 L 252.136719 131.605469 L 256.769531 131.605469 L 268.371094 102.371094 Z M 268.582031 102.371094 " fill-opacity="1" fill-rule="nonzero"/></g><g clip-path="url(#56c777504a)"><path fill="#f1511b" d="M 151.597656 80.917969 L 181.726562 80.917969 L 181.726562 111.046875 L 151.597656 111.046875 Z M 151.597656 80.917969 " fill-opacity="1" fill-rule="nonzero"/></g><path fill="#80cc28" d="M 214.992188 111.046875 L 184.863281 111.046875 L 184.863281 80.917969 L 214.992188 80.917969 Z M 214.992188 111.046875 " fill-opacity="1" fill-rule="nonzero"/><g clip-path="url(#b6574e5f6a)"><path fill="#00adef" d="M 151.597656 114.195312 L 181.726562 114.195312 L 181.726562 144.324219 L 151.597656 144.324219 Z M 151.597656 114.195312 " fill-opacity="1" fill-rule="nonzero"/></g><path fill="#fbbc09" d="M 214.992188 144.324219 L 184.863281 144.324219 L 184.863281 114.195312 L 214.992188 114.195312 Z M 214.992188 144.324219 " fill-opacity="1" fill-rule="nonzero"/></svg>