<svg xmlns="http://www.w3.org/2000/svg" xmlns:xlink="http://www.w3.org/1999/xlink" width="40" zoomAndPan="magnify" viewBox="0 0 30 30.000001" height="40" preserveAspectRatio="xMidYMid meet" version="1.0"><defs><clipPath id="c7ef8ea291"><path d="M 3.386719 2.902344 L 26.613281 2.902344 L 26.613281 25.402344 L 3.386719 25.402344 Z M 3.386719 2.902344 " clip-rule="nonzero"/></clipPath></defs><g clip-path="url(#c7ef8ea291)"><path fill="#000000" d="M 13.042969 25.074219 L 4.4375 25.074219 L 4.4375 24.03125 L 3.394531 24.03125 L 3.394531 19.597656 L 4.4375 19.597656 L 4.4375 18.554688 L 9.652344 18.554688 L 9.652344 4.992188 L 13.828125 4.992188 L 13.828125 3.945312 L 19.042969 3.945312 L 19.042969 2.902344 L 26.605469 2.902344 L 26.605469 21.945312 L 25.5625 21.945312 L 25.5625 22.988281 L 16.957031 22.988281 L 16.957031 21.945312 L 15.914062 21.945312 L 15.914062 17.511719 L 16.957031 17.511719 L 16.957031 16.46875 L 22.175781 16.46875 L 22.175781 11.507812 L 21.390625 11.507812 L 21.390625 12.554688 L 16.171875 12.554688 L 16.171875 13.597656 L 14.085938 13.597656 L 14.085938 24.03125 L 13.042969 24.03125 Z M 6.78125 22.726562 L 10.695312 22.726562 L 10.695312 21.683594 L 11.742188 21.683594 L 11.742188 20.898438 L 6.78125 20.898438 Z M 19.304688 20.640625 L 23.21875 20.640625 L 23.21875 19.597656 L 24.261719 19.597656 L 24.261719 18.8125 L 19.304688 18.8125 Z M 19.304688 20.640625 " fill-opacity="1" fill-rule="nonzero"/></g><path fill="#c6c0ff" d="M 24.390625 4.078125 L 20.21875 4.078125 L 20.21875 5.121094 L 15 5.121094 L 15 6.164062 L 10.828125 6.164062 L 10.828125 19.726562 L 5.609375 19.726562 L 5.609375 20.769531 L 4.566406 20.769531 L 4.566406 22.859375 L 5.609375 22.859375 L 5.609375 23.902344 L 11.871094 23.902344 L 11.871094 22.859375 L 12.914062 22.859375 L 12.914062 12.421875 L 15 12.421875 L 15 11.378906 L 20.21875 11.378906 L 20.21875 10.335938 L 23.347656 10.335938 L 23.347656 17.640625 L 18.128906 17.640625 L 18.128906 18.683594 L 17.085938 18.683594 L 17.085938 20.769531 L 18.128906 20.769531 L 18.128906 21.8125 L 24.390625 21.8125 L 24.390625 20.769531 L 25.433594 20.769531 L 25.433594 4.078125 Z M 19.171875 9.292969 L 15 9.292969 L 15 10.335938 L 12.914062 10.335938 L 12.914062 8.25 L 15 8.25 L 15 7.207031 L 20.21875 7.207031 L 20.21875 6.164062 L 23.347656 6.164062 L 23.347656 8.25 L 20.21875 8.25 L 20.21875 9.292969 Z M 19.171875 9.292969 " fill-opacity="1" fill-rule="nonzero"/></svg>