<svg xmlns="http://www.w3.org/2000/svg" xmlns:xlink="http://www.w3.org/1999/xlink" width="40" zoomAndPan="magnify" viewBox="0 0 30 30.000001" height="40" preserveAspectRatio="xMidYMid meet" version="1.0"><defs><clipPath id="72fd36468f"><path d="M 2.871094 2.386719 L 26.820312 2.386719 L 26.820312 26.335938 L 2.871094 26.335938 Z M 2.871094 2.386719 " clip-rule="nonzero"/></clipPath><clipPath id="bb88b6c098"><path d="M 11 4 L 26.820312 4 L 26.820312 26 L 11 26 Z M 11 4 " clip-rule="nonzero"/></clipPath></defs><g clip-path="url(#72fd36468f)"><path fill="#353970" d="M 26.398438 4.523438 L 26.398438 3.839844 L 25.429688 3.839844 L 25.429688 3.113281 L 23.742188 3.113281 L 23.742188 2.386719 L 22.050781 2.386719 L 22.050781 3.105469 L 21.34375 3.105469 L 21.34375 2.386719 L 19.648438 2.386719 L 19.648438 3.105469 L 18.941406 3.105469 L 18.941406 2.386719 L 17.277344 2.386719 L 17.277344 3.105469 L 16.566406 3.105469 L 16.566406 2.386719 L 14.871094 2.386719 L 14.871094 3.105469 L 14.164062 3.105469 L 14.164062 2.386719 L 12.476562 2.386719 L 12.476562 3.105469 L 11.765625 3.105469 L 11.765625 2.386719 L 10.070312 2.386719 L 10.070312 3.105469 L 9.355469 3.105469 L 9.355469 3.808594 L 8.398438 3.808594 L 8.398438 5.5 L 7.675781 5.5 L 7.675781 6.945312 L 6.714844 6.945312 L 6.714844 8.632812 L 7.195312 8.632812 L 7.195312 8.628906 L 7.679688 8.628906 L 7.679688 6.949219 L 8.640625 6.949219 L 8.640625 5.5 L 9.363281 5.5 L 9.363281 3.828125 L 10.078125 3.828125 L 10.078125 3.109375 L 10.554688 3.109375 L 10.554688 3.105469 L 10.800781 3.105469 L 10.800781 3.828125 L 10.078125 3.828125 L 10.078125 4.550781 L 10.804688 4.550781 L 10.804688 3.832031 L 12.476562 3.832031 L 12.476562 4.550781 L 13.199219 4.550781 L 13.199219 3.832031 L 14.878906 3.832031 L 14.878906 4.550781 L 15.605469 4.550781 L 15.605469 3.832031 L 17.277344 3.832031 L 17.277344 4.550781 L 18 4.550781 L 18 3.832031 L 19.679688 3.832031 L 19.679688 4.550781 L 20.40625 4.550781 L 20.40625 3.832031 L 22.078125 3.832031 L 22.078125 4.550781 L 22.808594 4.550781 L 22.808594 3.839844 L 24.726562 3.839844 L 24.726562 4.523438 L 23.765625 4.523438 L 23.765625 6.238281 L 23.042969 6.238281 L 23.042969 7.929688 L 22.316406 7.929688 L 22.316406 9.496094 L 21.429688 9.496094 L 21.429688 10.945312 L 20.464844 10.945312 L 20.464844 12.636719 L 19.738281 12.636719 L 19.738281 14.566406 L 19.007812 14.566406 L 19.007812 16.019531 L 18.285156 16.019531 L 18.285156 17.46875 L 3.8125 17.46875 L 3.8125 15.054688 L 4.539062 15.054688 L 4.539062 13.601562 L 5.261719 13.601562 L 5.261719 11.910156 L 5.984375 11.910156 L 5.984375 10.222656 L 6.710938 10.222656 L 6.710938 8.527344 L 5.742188 8.527344 L 5.742188 10.222656 L 5.019531 10.222656 L 5.019531 11.910156 L 4.296875 11.910156 L 4.296875 13.601562 L 3.566406 13.601562 L 3.566406 15.054688 L 2.875 15.054688 L 2.875 17.707031 L 3.597656 17.707031 L 3.597656 18.433594 L 9.15625 18.433594 L 9.15625 24.230469 L 9.878906 24.230469 L 9.878906 25.195312 L 10.847656 25.195312 L 10.847656 25.917969 L 11.8125 25.917969 L 11.8125 26.644531 L 25.585938 26.644531 L 25.585938 26.160156 L 26.554688 26.160156 L 26.554688 25.320312 L 27.121094 25.320312 L 27.121094 4.523438 Z M 13.199219 3.347656 L 13.199219 3.828125 L 12.492188 3.828125 L 12.492188 3.109375 L 12.957031 3.109375 L 12.957031 3.105469 L 13.199219 3.105469 Z M 15.121094 3.828125 L 14.890625 3.828125 L 14.890625 3.109375 L 15.359375 3.109375 L 15.359375 3.105469 L 15.601562 3.105469 L 15.601562 3.828125 Z M 18 3.347656 L 18 3.828125 L 17.292969 3.828125 L 17.292969 3.109375 L 17.757812 3.109375 L 17.757812 3.105469 L 18 3.105469 Z M 19.921875 3.828125 L 19.691406 3.828125 L 19.691406 3.109375 L 20.160156 3.109375 L 20.160156 3.105469 L 20.402344 3.105469 L 20.402344 3.828125 Z M 22.320312 3.828125 L 22.089844 3.828125 L 22.089844 3.113281 L 22.558594 3.113281 L 22.558594 3.109375 L 22.800781 3.109375 L 22.800781 3.820312 L 22.320312 3.820312 Z M 25.921875 25.195312 L 25.433594 25.195312 L 25.433594 25.679688 L 11.75 25.679688 L 11.75 24.953125 L 10.785156 24.953125 L 10.785156 24.230469 L 10.058594 24.230469 L 10.058594 18.433594 L 18.277344 18.433594 L 18.277344 17.707031 L 19.242188 17.707031 L 19.242188 16.019531 L 19.96875 16.019531 L 19.96875 14.566406 L 20.695312 14.566406 L 20.695312 12.636719 L 21.417969 12.636719 L 21.417969 11.1875 L 22.386719 11.1875 L 22.386719 9.621094 L 23.273438 9.621094 L 23.273438 7.929688 L 24 7.929688 L 24 6.21875 L 24.722656 6.21875 L 24.722656 4.570312 L 26.398438 4.570312 L 26.398438 25.195312 Z M 11.269531 8.152344 L 11.027344 8.152344 L 11.027344 7.1875 L 19.007812 7.1875 L 19.007812 8.148438 L 11.515625 8.148438 L 11.515625 8.152344 Z M 11.027344 8.617188 L 18.292969 8.617188 L 18.292969 9.585938 L 10.058594 9.585938 L 10.058594 8.617188 Z M 11.027344 8.617188 " fill-opacity="1" fill-rule="nonzero"/></g><path fill="#ff79b3" d="M 24 3.828125 L 22.792969 3.828125 L 22.792969 4.550781 L 22.066406 4.550781 L 22.066406 3.828125 L 20.378906 3.828125 L 20.378906 4.550781 L 19.648438 4.550781 L 19.648438 3.828125 L 17.957031 3.828125 L 17.957031 4.550781 L 17.277344 4.550781 L 17.277344 3.828125 L 15.585938 3.828125 L 15.585938 4.550781 L 14.859375 4.550781 L 14.859375 3.828125 L 13.164062 3.828125 L 13.164062 4.550781 L 12.476562 4.550781 L 12.476562 3.828125 L 10.785156 3.828125 L 10.785156 4.550781 L 10.058594 4.550781 L 10.058594 3.828125 L 9.328125 3.828125 L 9.328125 5.519531 L 8.605469 5.519531 L 8.605469 6.949219 L 7.675781 6.949219 L 7.675781 8.621094 L 6.710938 8.621094 L 6.710938 10.222656 L 5.984375 10.222656 L 5.984375 11.910156 L 5.261719 11.910156 L 5.261719 13.601562 L 4.539062 13.601562 L 4.539062 15.054688 L 3.8125 15.054688 L 3.8125 17.597656 L 18.3125 17.597656 L 18.3125 16.148438 L 19.035156 16.148438 L 19.035156 14.699219 L 19.761719 14.699219 L 19.761719 12.769531 L 20.488281 12.769531 L 20.488281 11.078125 L 21.453125 11.078125 L 21.453125 9.625 L 22.417969 9.625 L 22.417969 7.933594 L 23.144531 7.933594 L 23.144531 6.238281 L 23.867188 6.238281 L 23.867188 4.523438 L 24.832031 4.523438 L 24.832031 3.828125 Z M 18.296875 8.871094 L 18.296875 9.597656 L 10.058594 9.597656 L 10.058594 8.628906 L 18.296875 8.628906 Z M 19.007812 7.425781 L 19.007812 8.152344 L 11.027344 8.152344 L 11.027344 7.1875 L 19.007812 7.1875 Z M 19.007812 7.425781 " fill-opacity="1" fill-rule="nonzero"/><path fill="#888bbc" d="M 25.683594 4.523438 L 25.683594 24.355469 L 24.960938 24.355469 L 24.960938 25.078125 L 10.785156 25.078125 L 10.785156 24.355469 L 24.078125 24.355469 L 24.078125 23.632812 L 24.722656 23.632812 L 24.722656 4.523438 Z M 25.683594 4.523438 " fill-opacity="1" fill-rule="nonzero"/><g clip-path="url(#bb88b6c098)"><path fill="#6466af" d="M 26.40625 4.523438 L 26.40625 25.320312 L 25.433594 25.320312 L 25.433594 25.804688 L 11.75 25.804688 L 11.75 25.078125 L 24.960938 25.078125 L 24.960938 24.355469 L 25.683594 24.355469 L 25.683594 4.523438 Z M 26.40625 4.523438 " fill-opacity="1" fill-rule="nonzero"/></g><path fill="#fff9ee" d="M 24.722656 6.21875 L 24.722656 23.621094 L 24.078125 23.621094 L 24.078125 24.355469 L 23.464844 24.355469 L 23.464844 24.34375 L 10.058594 24.34375 L 10.058594 18.433594 L 18.277344 18.433594 L 18.277344 17.707031 L 19.242188 17.707031 L 19.242188 16.019531 L 19.96875 16.019531 L 19.96875 14.566406 L 20.695312 14.566406 L 20.695312 12.636719 L 21.417969 12.636719 L 21.417969 11.1875 L 22.386719 11.1875 L 22.386719 9.613281 L 23.273438 9.613281 L 23.273438 7.917969 L 24 7.917969 L 24 6.21875 Z M 24.722656 6.21875 " fill-opacity="1" fill-rule="nonzero"/></svg>