<svg xmlns="http://www.w3.org/2000/svg" xmlns:xlink="http://www.w3.org/1999/xlink" width="40" zoomAndPan="magnify" viewBox="0 0 30 30.000001" height="40" preserveAspectRatio="xMidYMid meet" version="1.0"><defs><clipPath id="8d83cba005"><path d="M 3.449219 2.902344 L 26.675781 2.902344 L 26.675781 26.128906 L 3.449219 26.128906 Z M 3.449219 2.902344 " clip-rule="nonzero"/></clipPath></defs><path fill="#040606" d="M 20.582031 10.246094 L 21.800781 10.246094 L 21.800781 9.027344 L 20.582031 9.027344 L 20.582031 10.246094 " fill-opacity="1" fill-rule="nonzero"/><path fill="#040606" d="M 19.367188 7.816406 L 19.367188 9.027344 L 20.582031 9.027344 L 20.582031 7.816406 L 19.367188 7.816406 " fill-opacity="1" fill-rule="nonzero"/><path fill="#040606" d="M 18.101562 6.601562 L 14.449219 6.601562 L 14.449219 7.816406 L 19.367188 7.816406 L 19.367188 6.601562 L 18.101562 6.601562 " fill-opacity="1" fill-rule="nonzero"/><path fill="#040606" d="M 13.234375 9.027344 L 14.449219 9.027344 L 14.449219 7.816406 L 13.234375 7.816406 L 13.234375 9.027344 " fill-opacity="1" fill-rule="nonzero"/><path fill="#040606" d="M 12.015625 10.246094 L 13.234375 10.246094 L 13.234375 9.027344 L 12.015625 9.027344 L 12.015625 10.246094 " fill-opacity="1" fill-rule="nonzero"/><g clip-path="url(#8d83cba005)"><path fill="#040606" d="M 24.234375 10.246094 L 24.234375 16.359375 L 23.019531 16.359375 L 23.019531 17.574219 L 21.800781 17.574219 L 21.800781 18.785156 L 20.582031 18.785156 L 20.582031 20 L 13.234375 20 L 13.234375 18.785156 L 12.015625 18.785156 L 12.015625 17.574219 L 10.796875 17.574219 L 10.796875 16.359375 L 9.582031 16.359375 L 9.582031 9.027344 L 10.796875 9.027344 L 10.796875 7.816406 L 12.015625 7.816406 L 12.015625 6.601562 L 13.234375 6.601562 L 13.234375 5.390625 L 20.582031 5.390625 L 20.582031 6.601562 L 21.800781 6.601562 L 21.800781 7.816406 L 23.019531 7.816406 L 23.019531 9.027344 L 24.234375 9.027344 Z M 25.453125 10.246094 L 25.453125 7.816406 L 24.234375 7.816406 L 24.234375 6.601562 L 23.019531 6.601562 L 23.019531 5.390625 L 21.800781 5.390625 L 21.800781 4.128906 L 19.367188 4.128906 L 19.367188 2.914062 L 14.449219 2.914062 L 14.449219 4.128906 L 12.015625 4.128906 L 12.015625 5.390625 L 10.796875 5.390625 L 10.796875 6.601562 L 9.582031 6.601562 L 9.582031 7.816406 L 8.316406 7.816406 L 8.316406 10.246094 L 7.097656 10.246094 L 7.097656 15.148438 L 8.316406 15.148438 L 8.316406 17.574219 L 7.097656 17.574219 L 7.097656 18.785156 L 5.882812 18.785156 L 5.882812 20 L 4.664062 20 L 4.664062 21.214844 L 3.449219 21.214844 L 3.449219 24.90625 L 4.664062 24.90625 L 4.664062 26.117188 L 8.316406 26.117188 L 8.316406 24.90625 L 9.582031 24.90625 L 9.582031 23.644531 L 10.796875 23.644531 L 10.796875 22.429688 L 12.015625 22.429688 L 12.015625 21.214844 L 14.449219 21.214844 L 14.449219 22.429688 L 19.367188 22.429688 L 19.367188 21.214844 L 21.800781 21.214844 L 21.800781 20 L 23.019531 20 L 23.019531 18.785156 L 24.234375 18.785156 L 24.234375 17.574219 L 25.453125 17.574219 L 25.453125 15.148438 L 26.671875 15.148438 L 26.671875 10.246094 L 25.453125 10.246094 " fill-opacity="1" fill-rule="nonzero"/></g></svg>