<svg xmlns="http://www.w3.org/2000/svg" xmlns:xlink="http://www.w3.org/1999/xlink" width="40" zoomAndPan="magnify" viewBox="0 0 30 30.000001" height="40" preserveAspectRatio="xMidYMid meet" version="1.0"><defs><clipPath id="a0d6c48793"><path d="M 0.484375 2.902344 L 29.515625 2.902344 L 29.515625 25.402344 L 0.484375 25.402344 Z M 0.484375 2.902344 " clip-rule="nonzero"/></clipPath><clipPath id="697129cba4"><path d="M 8.113281 10 L 21.902344 10 L 21.902344 22 L 8.113281 22 Z M 8.113281 10 " clip-rule="nonzero"/></clipPath><clipPath id="fc92dc45d4"><path d="M 14 7.648438 L 16 7.648438 L 16 10 L 14 10 Z M 14 7.648438 " clip-rule="nonzero"/></clipPath><clipPath id="2bbdeff388"><path d="M 14 22 L 16 22 L 16 23.617188 L 14 23.617188 Z M 14 22 " clip-rule="nonzero"/></clipPath></defs><g clip-path="url(#a0d6c48793)"><path fill="#6566af" d="M 29.503906 6.941406 L 29.503906 25.402344 L 0.496094 25.402344 L 0.496094 6.941406 L 1.632812 6.941406 L 1.632812 24.25 L 28.355469 24.25 L 28.355469 6.941406 Z M 2.203125 6.941406 L 1.632812 6.941406 L 1.632812 5.789062 L 2.785156 5.789062 L 2.785156 4.632812 L 3.351562 4.632812 L 3.351562 3.480469 L 4.488281 3.480469 L 4.488281 2.902344 L 11.878906 2.902344 L 11.878906 3.480469 L 13.015625 3.480469 L 13.015625 4.632812 L 13.585938 4.632812 L 13.585938 5.789062 L 28.355469 5.789062 L 28.355469 6.941406 Z M 3.921875 4.632812 L 3.921875 5.789062 L 12.449219 5.789062 L 12.449219 4.632812 L 11.878906 4.632812 L 11.878906 4.058594 L 4.488281 4.058594 L 4.488281 4.632812 Z M 3.921875 4.632812 " fill-opacity="1" fill-rule="nonzero"/></g><path fill="#fdf0cb" d="M 28.367188 6.941406 L 28.367188 24.253906 L 1.632812 24.253906 L 1.632812 6.941406 Z M 11.875 5.789062 L 12.441406 5.789062 L 12.441406 4.632812 L 11.875 4.632812 L 11.875 4.058594 L 4.488281 4.058594 L 4.488281 4.632812 L 3.921875 4.632812 L 3.921875 5.789062 Z M 11.875 5.789062 " fill-opacity="1" fill-rule="nonzero"/><path fill="#000000" d="M 20.082031 14.101562 L 18.859375 14.101562 C 18.5625 14.101562 18.320312 13.859375 18.320312 13.566406 L 18.320312 13.171875 C 18.320312 12.875 18.5625 12.636719 18.859375 12.636719 L 20.082031 12.636719 C 20.382812 12.636719 20.625 12.875 20.625 13.171875 L 20.625 13.566406 C 20.625 13.859375 20.382812 14.101562 20.082031 14.101562 Z M 18.914062 13.511719 L 20.03125 13.511719 L 20.03125 13.222656 L 18.914062 13.222656 Z M 18.914062 13.511719 " fill-opacity="1" fill-rule="nonzero"/><g clip-path="url(#697129cba4)"><path fill="#000000" d="M 20.59375 11.785156 L 17.714844 11.785156 L 17.34375 10.546875 C 17.246094 10.226562 16.917969 10.003906 16.542969 10.003906 L 13.472656 10.003906 C 13.09375 10.003906 12.765625 10.226562 12.667969 10.546875 L 12.300781 11.78125 L 11.535156 11.78125 L 11.535156 11.324219 C 11.535156 11.054688 11.3125 10.835938 11.039062 10.835938 L 9.835938 10.835938 C 9.5625 10.835938 9.34375 11.058594 9.34375 11.324219 L 9.34375 11.789062 C 8.675781 11.832031 8.144531 12.375 8.144531 13.042969 L 8.144531 20.003906 C 8.144531 20.695312 8.714844 21.261719 9.417969 21.261719 L 20.59375 21.261719 C 21.296875 21.261719 21.871094 20.695312 21.871094 20.003906 L 21.871094 13.042969 C 21.871094 12.347656 21.296875 11.785156 20.59375 11.785156 Z M 13.242188 10.714844 C 13.257812 10.652344 13.351562 10.589844 13.472656 10.589844 L 16.542969 10.589844 C 16.664062 10.589844 16.753906 10.652344 16.773438 10.714844 L 17.09375 11.78125 L 12.921875 11.78125 Z M 9.9375 11.425781 L 10.9375 11.425781 L 10.9375 11.785156 L 9.9375 11.785156 Z M 9.417969 12.371094 L 20.59375 12.371094 C 20.96875 12.371094 21.273438 12.671875 21.273438 13.042969 L 21.273438 14.351562 L 17.863281 14.351562 C 17.207031 13.464844 16.152344 12.886719 14.957031 12.886719 C 13.765625 12.886719 12.707031 13.464844 12.054688 14.351562 L 8.738281 14.351562 L 8.738281 13.042969 C 8.738281 12.671875 9.042969 12.371094 9.417969 12.371094 Z M 14.957031 13.476562 C 16.613281 13.476562 17.957031 14.804688 17.957031 16.4375 C 17.957031 18.070312 16.613281 19.398438 14.957031 19.398438 C 13.304688 19.398438 11.960938 18.070312 11.960938 16.4375 C 11.960938 14.804688 13.304688 13.476562 14.957031 13.476562 Z M 20.59375 20.671875 L 9.417969 20.671875 C 9.042969 20.671875 8.738281 20.371094 8.738281 20.003906 L 8.738281 14.941406 L 11.703125 14.941406 C 11.488281 15.394531 11.363281 15.902344 11.363281 16.4375 C 11.363281 18.394531 12.976562 19.984375 14.957031 19.984375 C 16.941406 19.984375 18.554688 18.394531 18.554688 16.4375 C 18.554688 15.902344 18.429688 15.394531 18.214844 14.941406 L 21.273438 14.941406 L 21.273438 20.003906 C 21.273438 20.371094 20.96875 20.671875 20.59375 20.671875 Z M 20.59375 20.671875 " fill-opacity="1" fill-rule="nonzero"/></g><path fill="#000000" d="M 15.835938 10.847656 L 14.179688 10.847656 C 14.015625 10.847656 13.878906 10.980469 13.878906 11.144531 C 13.878906 11.304688 14.015625 11.4375 14.179688 11.4375 L 15.835938 11.4375 C 16 11.4375 16.132812 11.304688 16.132812 11.144531 C 16.132812 10.980469 16 10.847656 15.835938 10.847656 Z M 15.835938 10.847656 " fill-opacity="1" fill-rule="nonzero"/><path fill="#000000" d="M 14.957031 19.140625 C 13.449219 19.140625 12.21875 17.929688 12.21875 16.4375 C 12.21875 14.945312 13.449219 13.730469 14.957031 13.730469 C 16.46875 13.730469 17.699219 14.945312 17.699219 16.4375 C 17.699219 17.929688 16.46875 19.140625 14.957031 19.140625 Z M 14.957031 14.320312 C 13.777344 14.320312 12.8125 15.269531 12.8125 16.4375 C 12.8125 17.605469 13.777344 18.554688 14.957031 18.554688 C 16.140625 18.554688 17.105469 17.605469 17.105469 16.4375 C 17.105469 15.269531 16.140625 14.320312 14.957031 14.320312 Z M 14.957031 14.320312 " fill-opacity="1" fill-rule="nonzero"/><path fill="#000000" d="M 13.25 16.730469 C 13.085938 16.730469 12.949219 16.597656 12.949219 16.4375 C 12.949219 15.34375 13.851562 14.453125 14.957031 14.453125 C 15.121094 14.453125 15.257812 14.585938 15.257812 14.75 C 15.257812 14.910156 15.121094 15.042969 14.957031 15.042969 C 14.179688 15.042969 13.546875 15.667969 13.546875 16.4375 C 13.546875 16.597656 13.414062 16.730469 13.25 16.730469 Z M 13.25 16.730469 " fill-opacity="1" fill-rule="nonzero"/><path fill="#000000" d="M 9.90625 20.238281 C 9.445312 20.238281 9.074219 19.871094 9.074219 19.417969 C 9.074219 18.96875 9.445312 18.601562 9.90625 18.601562 C 10.363281 18.601562 10.734375 18.96875 10.734375 19.417969 C 10.734375 19.871094 10.363281 20.238281 9.90625 20.238281 Z M 9.90625 19.1875 C 9.777344 19.1875 9.671875 19.292969 9.671875 19.417969 C 9.671875 19.546875 9.777344 19.652344 9.90625 19.652344 C 10.035156 19.652344 10.140625 19.546875 10.140625 19.417969 C 10.140625 19.292969 10.035156 19.1875 9.90625 19.1875 Z M 9.90625 19.1875 " fill-opacity="1" fill-rule="nonzero"/><g clip-path="url(#fc92dc45d4)"><path fill="#000000" d="M 14.972656 9.054688 C 14.808594 9.054688 14.675781 8.921875 14.675781 8.761719 L 14.675781 7.945312 C 14.675781 7.78125 14.808594 7.648438 14.972656 7.648438 C 15.136719 7.648438 15.273438 7.78125 15.273438 7.945312 L 15.273438 8.761719 C 15.269531 8.921875 15.136719 9.054688 14.972656 9.054688 Z M 14.972656 9.054688 " fill-opacity="1" fill-rule="nonzero"/></g><path fill="#000000" d="M 13.511719 9.503906 C 13.4375 9.503906 13.359375 9.472656 13.300781 9.417969 L 12.71875 8.839844 C 12.601562 8.722656 12.601562 8.539062 12.71875 8.421875 C 12.832031 8.308594 13.023438 8.308594 13.136719 8.421875 L 13.722656 9 C 13.839844 9.117188 13.839844 9.300781 13.722656 9.417969 C 13.664062 9.472656 13.589844 9.503906 13.511719 9.503906 Z M 13.511719 9.503906 " fill-opacity="1" fill-rule="nonzero"/><path fill="#000000" d="M 16.5 9.503906 C 16.425781 9.503906 16.347656 9.472656 16.289062 9.417969 C 16.171875 9.300781 16.171875 9.117188 16.289062 9 L 16.875 8.421875 C 16.992188 8.308594 17.179688 8.308594 17.296875 8.421875 C 17.410156 8.539062 17.410156 8.722656 17.296875 8.839844 L 16.710938 9.417969 C 16.652344 9.472656 16.578125 9.503906 16.5 9.503906 Z M 16.5 9.503906 " fill-opacity="1" fill-rule="nonzero"/><g clip-path="url(#2bbdeff388)"><path fill="#000000" d="M 14.972656 23.613281 C 14.808594 23.613281 14.675781 23.480469 14.675781 23.320312 L 14.675781 22.503906 C 14.675781 22.339844 14.808594 22.210938 14.972656 22.210938 C 15.136719 22.210938 15.273438 22.339844 15.273438 22.503906 L 15.273438 23.320312 C 15.269531 23.484375 15.136719 23.613281 14.972656 23.613281 Z M 14.972656 23.613281 " fill-opacity="1" fill-rule="nonzero"/></g><path fill="#000000" d="M 12.925781 22.925781 C 12.851562 22.925781 12.773438 22.898438 12.714844 22.839844 C 12.601562 22.726562 12.601562 22.539062 12.714844 22.425781 L 13.300781 21.847656 C 13.417969 21.734375 13.605469 21.734375 13.722656 21.847656 C 13.839844 21.960938 13.839844 22.148438 13.722656 22.261719 L 13.136719 22.839844 C 13.078125 22.898438 13.003906 22.925781 12.925781 22.925781 Z M 12.925781 22.925781 " fill-opacity="1" fill-rule="nonzero"/><path fill="#000000" d="M 17.085938 22.925781 C 17.007812 22.925781 16.933594 22.898438 16.875 22.839844 L 16.289062 22.261719 C 16.175781 22.148438 16.175781 21.960938 16.289062 21.847656 C 16.40625 21.734375 16.59375 21.734375 16.710938 21.847656 L 17.296875 22.425781 C 17.414062 22.539062 17.414062 22.726562 17.296875 22.839844 C 17.238281 22.898438 17.160156 22.925781 17.085938 22.925781 Z M 17.085938 22.925781 " fill-opacity="1" fill-rule="nonzero"/></svg>