<svg xmlns="http://www.w3.org/2000/svg" xmlns:xlink="http://www.w3.org/1999/xlink" width="500" zoomAndPan="magnify" viewBox="0 0 375 374.999991" height="500" preserveAspectRatio="xMidYMid meet" version="1.0"><defs><g/></defs><g fill="#000000" fill-opacity="1"><g transform="translate(46.390307, 229.844927)"><g><path d="M 6.375 -3.046875 L 6.375 -13.46875 C 7.5625 -12.414062 8.988281 -11.46875 10.65625 -10.625 C 12.320312 -9.789062 14.078125 -9.082031 15.921875 -8.5 C 17.765625 -7.914062 19.613281 -7.46875 21.46875 -7.15625 C 23.332031 -6.84375 25.050781 -6.6875 26.625 -6.6875 C 32.0625 -6.6875 36.125 -7.691406 38.8125 -9.703125 C 41.5 -11.722656 42.84375 -14.628906 42.84375 -18.421875 C 42.84375 -20.453125 42.394531 -22.222656 41.5 -23.734375 C 40.601562 -25.242188 39.363281 -26.617188 37.78125 -27.859375 C 36.207031 -29.109375 34.335938 -30.300781 32.171875 -31.4375 C 30.015625 -32.582031 27.691406 -33.785156 25.203125 -35.046875 C 22.578125 -36.378906 20.125 -37.726562 17.84375 -39.09375 C 15.5625 -40.46875 13.578125 -41.976562 11.890625 -43.625 C 10.210938 -45.28125 8.890625 -47.148438 7.921875 -49.234375 C 6.953125 -51.316406 6.46875 -53.765625 6.46875 -56.578125 C 6.46875 -60.015625 7.222656 -63.003906 8.734375 -65.546875 C 10.242188 -68.085938 12.222656 -70.179688 14.671875 -71.828125 C 17.128906 -73.484375 19.925781 -74.710938 23.0625 -75.515625 C 26.207031 -76.328125 29.414062 -76.734375 32.6875 -76.734375 C 40.125 -76.734375 45.539062 -75.835938 48.9375 -74.046875 L 48.9375 -64.09375 C 44.488281 -67.1875 38.769531 -68.734375 31.78125 -68.734375 C 29.851562 -68.734375 27.925781 -68.53125 26 -68.125 C 24.070312 -67.71875 22.351562 -67.054688 20.84375 -66.140625 C 19.332031 -65.234375 18.101562 -64.0625 17.15625 -62.625 C 16.207031 -61.1875 15.734375 -59.429688 15.734375 -57.359375 C 15.734375 -55.429688 16.09375 -53.765625 16.8125 -52.359375 C 17.53125 -50.960938 18.59375 -49.679688 20 -48.515625 C 21.40625 -47.359375 23.113281 -46.234375 25.125 -45.140625 C 27.144531 -44.054688 29.472656 -42.867188 32.109375 -41.578125 C 34.804688 -40.242188 37.363281 -38.835938 39.78125 -37.359375 C 42.207031 -35.890625 44.332031 -34.257812 46.15625 -32.46875 C 47.976562 -30.675781 49.421875 -28.691406 50.484375 -26.515625 C 51.554688 -24.347656 52.09375 -21.859375 52.09375 -19.046875 C 52.09375 -15.328125 51.363281 -12.175781 49.90625 -9.59375 C 48.457031 -7.019531 46.492188 -4.925781 44.015625 -3.3125 C 41.546875 -1.695312 38.695312 -0.53125 35.46875 0.1875 C 32.238281 0.90625 28.835938 1.265625 25.265625 1.265625 C 24.066406 1.265625 22.585938 1.164062 20.828125 0.96875 C 19.078125 0.78125 17.289062 0.5 15.46875 0.125 C 13.644531 -0.238281 11.914062 -0.691406 10.28125 -1.234375 C 8.65625 -1.773438 7.351562 -2.378906 6.375 -3.046875 Z M 6.375 -3.046875 "/></g></g><g transform="translate(103.652208, 229.844927)"><g><path d="M 53.46875 0 L 44.84375 0 L 44.84375 -30.734375 C 44.84375 -42.171875 40.664062 -47.890625 32.3125 -47.890625 C 28 -47.890625 24.425781 -46.265625 21.59375 -43.015625 C 18.769531 -39.773438 17.359375 -35.679688 17.359375 -30.734375 L 17.359375 0 L 8.734375 0 L 8.734375 -53.890625 L 17.359375 -53.890625 L 17.359375 -44.9375 L 17.578125 -44.9375 C 21.648438 -51.75 27.546875 -55.15625 35.265625 -55.15625 C 41.160156 -55.15625 45.664062 -53.25 48.78125 -49.4375 C 51.90625 -45.632812 53.46875 -40.132812 53.46875 -32.9375 Z M 53.46875 0 "/></g></g><g transform="translate(164.650869, 229.844927)"><g><path d="M 47.3125 0 L 38.6875 0 L 38.6875 -8.421875 L 38.46875 -8.421875 C 34.71875 -1.960938 29.191406 1.265625 21.890625 1.265625 C 16.523438 1.265625 12.320312 -0.15625 9.28125 -3 C 6.25 -5.84375 4.734375 -9.613281 4.734375 -14.3125 C 4.734375 -24.382812 10.664062 -30.242188 22.53125 -31.890625 L 38.6875 -34.15625 C 38.6875 -43.3125 34.984375 -47.890625 27.578125 -47.890625 C 21.085938 -47.890625 15.226562 -45.679688 10 -41.265625 L 10 -50.09375 C 15.300781 -53.46875 21.40625 -55.15625 28.3125 -55.15625 C 40.976562 -55.15625 47.3125 -48.453125 47.3125 -35.046875 Z M 38.6875 -27.265625 L 25.6875 -25.46875 C 21.6875 -24.90625 18.664062 -23.910156 16.625 -22.484375 C 14.59375 -21.066406 13.578125 -18.554688 13.578125 -14.953125 C 13.578125 -12.316406 14.515625 -10.164062 16.390625 -8.5 C 18.265625 -6.832031 20.765625 -6 23.890625 -6 C 28.171875 -6 31.707031 -7.5 34.5 -10.5 C 37.289062 -13.5 38.6875 -17.296875 38.6875 -21.890625 Z M 38.6875 -27.265625 "/></g></g><g transform="translate(219.49177, 229.844927)"><g><path d="M 17.578125 -7.78125 L 17.359375 -7.78125 L 17.359375 24.78125 L 8.734375 24.78125 L 8.734375 -53.890625 L 17.359375 -53.890625 L 17.359375 -44.421875 L 17.578125 -44.421875 C 21.828125 -51.578125 28.035156 -55.15625 36.203125 -55.15625 C 43.148438 -55.15625 48.570312 -52.742188 52.46875 -47.921875 C 56.363281 -43.097656 58.3125 -36.632812 58.3125 -28.53125 C 58.3125 -19.507812 56.117188 -12.285156 51.734375 -6.859375 C 47.347656 -1.441406 41.347656 1.265625 33.734375 1.265625 C 26.753906 1.265625 21.367188 -1.75 17.578125 -7.78125 Z M 17.359375 -29.53125 L 17.359375 -22 C 17.359375 -17.539062 18.804688 -13.757812 21.703125 -10.65625 C 24.597656 -7.550781 28.273438 -6 32.734375 -6 C 37.960938 -6 42.054688 -8 45.015625 -12 C 47.984375 -16 49.46875 -21.5625 49.46875 -28.6875 C 49.46875 -34.6875 48.082031 -39.382812 45.3125 -42.78125 C 42.539062 -46.1875 38.785156 -47.890625 34.046875 -47.890625 C 29.035156 -47.890625 25 -46.144531 21.9375 -42.65625 C 18.882812 -39.164062 17.359375 -34.789062 17.359375 -29.53125 Z M 17.359375 -29.53125 "/></g></g><g transform="translate(282.858801, 229.844927)"><g><path d="M 5.46875 -1.953125 L 5.46875 -11.203125 C 10.175781 -7.734375 15.351562 -6 21 -6 C 28.570312 -6 32.359375 -8.523438 32.359375 -13.578125 C 32.359375 -15.015625 32.035156 -16.234375 31.390625 -17.234375 C 30.742188 -18.234375 29.867188 -19.117188 28.765625 -19.890625 C 27.660156 -20.660156 26.359375 -21.351562 24.859375 -21.96875 C 23.367188 -22.582031 21.765625 -23.222656 20.046875 -23.890625 C 17.660156 -24.835938 15.5625 -25.789062 13.75 -26.75 C 11.945312 -27.71875 10.441406 -28.804688 9.234375 -30.015625 C 8.023438 -31.234375 7.113281 -32.613281 6.5 -34.15625 C 5.882812 -35.695312 5.578125 -37.503906 5.578125 -39.578125 C 5.578125 -42.097656 6.15625 -44.332031 7.3125 -46.28125 C 8.46875 -48.226562 10.007812 -49.859375 11.9375 -51.171875 C 13.875 -52.492188 16.078125 -53.488281 18.546875 -54.15625 C 21.023438 -54.820312 23.578125 -55.15625 26.203125 -55.15625 C 30.867188 -55.15625 35.046875 -54.347656 38.734375 -52.734375 L 38.734375 -44 C 34.765625 -46.59375 30.203125 -47.890625 25.046875 -47.890625 C 23.429688 -47.890625 21.972656 -47.703125 20.671875 -47.328125 C 19.378906 -46.960938 18.269531 -46.445312 17.34375 -45.78125 C 16.414062 -45.113281 15.695312 -44.316406 15.1875 -43.390625 C 14.675781 -42.460938 14.421875 -41.4375 14.421875 -40.3125 C 14.421875 -38.90625 14.675781 -37.726562 15.1875 -36.78125 C 15.695312 -35.832031 16.441406 -34.988281 17.421875 -34.25 C 18.398438 -33.519531 19.59375 -32.851562 21 -32.25 C 22.40625 -31.65625 24 -31.007812 25.78125 -30.3125 C 28.164062 -29.394531 30.304688 -28.453125 32.203125 -27.484375 C 34.097656 -26.523438 35.710938 -25.441406 37.046875 -24.234375 C 38.378906 -23.023438 39.40625 -21.628906 40.125 -20.046875 C 40.84375 -18.472656 41.203125 -16.597656 41.203125 -14.421875 C 41.203125 -11.753906 40.613281 -9.4375 39.4375 -7.46875 C 38.269531 -5.507812 36.703125 -3.878906 34.734375 -2.578125 C 32.765625 -1.273438 30.5 -0.3125 27.9375 0.3125 C 25.382812 0.945312 22.703125 1.265625 19.890625 1.265625 C 14.347656 1.265625 9.539062 0.191406 5.46875 -1.953125 Z M 5.46875 -1.953125 "/></g></g></g></svg>