<svg xmlns="http://www.w3.org/2000/svg" xmlns:xlink="http://www.w3.org/1999/xlink" width="40" zoomAndPan="magnify" viewBox="0 0 30 30.000001" height="40" preserveAspectRatio="xMidYMid meet" version="1.0"><defs><clipPath id="b715a0760c"><path d="M 5.738281 3.621094 L 26.785156 3.621094 L 26.785156 25.398438 L 5.738281 25.398438 Z M 5.738281 3.621094 " clip-rule="nonzero"/></clipPath></defs><g clip-path="url(#b715a0760c)"><path fill="#000000" d="M 22.800781 22.09375 C 22.507812 22.09375 22.21875 21.984375 21.996094 21.761719 C 21.550781 21.320312 21.550781 20.597656 21.996094 20.152344 C 25.101562 17.046875 25.101562 11.992188 21.996094 8.886719 C 21.550781 8.441406 21.550781 7.71875 21.996094 7.273438 C 22.441406 6.828125 23.160156 6.828125 23.605469 7.273438 C 25.539062 9.210938 26.605469 11.78125 26.605469 14.519531 C 26.605469 17.253906 25.539062 19.828125 23.605469 21.761719 C 23.382812 21.984375 23.089844 22.09375 22.800781 22.09375 Z M 18.757812 19.949219 C 18.464844 19.949219 18.171875 19.839844 17.953125 19.617188 C 17.507812 19.171875 17.507812 18.449219 17.953125 18.007812 C 19.875 16.082031 19.875 12.953125 17.953125 11.03125 C 17.507812 10.585938 17.507812 9.867188 17.953125 9.421875 C 18.394531 8.976562 19.117188 8.976562 19.5625 9.421875 C 22.371094 12.230469 22.371094 16.804688 19.5625 19.617188 C 19.339844 19.839844 19.046875 19.949219 18.757812 19.949219 Z M 15.253906 4.242188 C 15.863281 3.632812 16.359375 3.839844 16.359375 4.703125 L 16.359375 24.335938 C 16.359375 25.195312 15.863281 25.402344 15.253906 24.796875 L 9.53125 19.074219 L 5.738281 19.074219 L 5.738281 9.96875 L 9.53125 9.96875 Z M 15.253906 4.242188 " fill-opacity="1" fill-rule="nonzero"/></g></svg>