<svg xmlns="http://www.w3.org/2000/svg" xmlns:xlink="http://www.w3.org/1999/xlink" width="40" zoomAndPan="magnify" viewBox="0 0 30 30.000001" height="40" preserveAspectRatio="xMidYMid meet" version="1.0"><defs><clipPath id="9622d0d46e"><path d="M 0.484375 0 L 29.515625 0 L 29.515625 29.03125 L 0.484375 29.03125 Z M 0.484375 0 " clip-rule="nonzero"/></clipPath><clipPath id="02edc201f0"><path d="M 6.726562 6.425781 L 22.695312 6.425781 L 22.695312 22.390625 L 6.726562 22.390625 Z M 6.726562 6.425781 " clip-rule="nonzero"/></clipPath></defs><g clip-path="url(#9622d0d46e)"><path fill="#fff9ee" d="M -0.53125 0 L 30.199219 0 L 30.199219 29.03125 L -0.53125 29.03125 Z M -0.53125 0 " fill-opacity="1" fill-rule="nonzero"/></g><g clip-path="url(#02edc201f0)"><path fill="#000000" d="M 22.589844 21.933594 C 22.691406 22.039062 22.691406 22.207031 22.589844 22.3125 C 22.539062 22.363281 22.46875 22.390625 22.402344 22.390625 C 22.332031 22.390625 22.265625 22.363281 22.214844 22.3125 L 14.707031 14.796875 L 7.203125 22.3125 C 7.152344 22.363281 7.085938 22.390625 7.015625 22.390625 C 6.949219 22.390625 6.878906 22.363281 6.828125 22.3125 C 6.726562 22.207031 6.726562 22.039062 6.828125 21.933594 L 14.332031 14.417969 L 6.828125 6.902344 C 6.726562 6.800781 6.726562 6.632812 6.828125 6.527344 C 6.933594 6.425781 7.101562 6.425781 7.203125 6.527344 L 14.707031 14.042969 L 22.214844 6.527344 C 22.316406 6.425781 22.484375 6.425781 22.589844 6.527344 C 22.691406 6.632812 22.691406 6.800781 22.589844 6.902344 L 15.085938 14.417969 Z M 22.589844 21.933594 " fill-opacity="1" fill-rule="nonzero"/></g></svg>